<?xml version="1.0"?>
<svg xmlns="http://www.w3.org/2000/svg" xmlns:xlink="http://www.w3.org/1999/xlink" version="1.1" id="Capa_1" x="0px" y="0px" viewBox="0 0 58 58" style="enable-background:new 0 0 58 58;" xml:space="preserve" width="512px" height="512px" class=""><g><g>
	<rect x="28" y="17" style="fill:#aab5c7" width="2" height="24" data-original="#556080" class="" data-old_color="#aab5c7"/>
	<polygon style="fill:#aab5c7" points="52,41 50,41 50,30 8,30 8,41 6,41 6,28 52,28  " data-original="#556080" class="" data-old_color="#aab5c7"/>
	<path style="fill:#aab5c7" d="M7,55L7,55c-3.866,0-7-3.134-7-7v0c0-3.866,3.134-7,7-7h0c3.866,0,7,3.134,7,7v0   C14,51.866,10.866,55,7,55z" data-original="#8697CB" class="active-path" data-old_color="#aab5c7"/>
	<path style="fill:#aab5c7" d="M51,55L51,55c-3.866,0-7-3.134-7-7v0c0-3.866,3.134-7,7-7h0c3.866,0,7,3.134,7,7v0   C58,51.866,54.866,55,51,55z" data-original="#3D324C" class="" data-old_color="#aab5c7"/>
	<path style="fill:#aab5c7" d="M29,55L29,55c-3.866,0-7-3.134-7-7v0c0-3.866,3.134-7,7-7h0c3.866,0,7,3.134,7,7v0   C36,51.866,32.866,55,29,55z" data-original="#556080" class="" data-old_color="#aab5c7"/>
	<path style="fill:#aab5c7" d="M29,17L29,17c-3.866,0-7-3.134-7-7v0c0-3.866,3.134-7,7-7h0c3.866,0,7,3.134,7,7v0   C36,13.866,32.866,17,29,17z" data-original="#65DDB9" class="" data-old_color="#aab5c7"/>
</g></g> </svg>
